<mxfile host="app.diagrams.net" agent="Mozilla/5.0 (Windows NT 10.0; Win64; x64) AppleWebKit/537.36 (KHTML, like Gecko) Chrome/128.0.0.0 Safari/537.36 Edg/128.0.0.0" version="24.7.13">
  <diagram name="Page-1" id="G8Z1aOc2a2VwqG3tYmDv">
    <mxGraphModel dx="2380" dy="1070" grid="1" gridSize="10" guides="1" tooltips="1" connect="1" arrows="1" fold="1" page="1" pageScale="1" pageWidth="850" pageHeight="1100" math="0" shadow="0">
      <root>
        <mxCell id="0" />
        <mxCell id="1" parent="0" />
        <mxCell id="aoXMOWsdjX2d0jGUOMzd-10" style="edgeStyle=orthogonalEdgeStyle;rounded=0;orthogonalLoop=1;jettySize=auto;html=1;entryX=1;entryY=0.5;entryDx=0;entryDy=0;exitX=0.5;exitY=1;exitDx=0;exitDy=0;" edge="1" parent="1" target="aoXMOWsdjX2d0jGUOMzd-17" source="aoXMOWsdjX2d0jGUOMzd-137">
          <mxGeometry relative="1" as="geometry">
            <mxPoint x="685.1594117647059" y="800" as="sourcePoint" />
            <Array as="points">
              <mxPoint x="740" y="853" />
            </Array>
          </mxGeometry>
        </mxCell>
        <mxCell id="aoXMOWsdjX2d0jGUOMzd-14" value="" style="edgeStyle=orthogonalEdgeStyle;rounded=0;orthogonalLoop=1;jettySize=auto;html=1;" edge="1" parent="1" source="aoXMOWsdjX2d0jGUOMzd-17" target="aoXMOWsdjX2d0jGUOMzd-18">
          <mxGeometry relative="1" as="geometry" />
        </mxCell>
        <mxCell id="aoXMOWsdjX2d0jGUOMzd-15" value="Yes" style="edgeLabel;html=1;align=center;verticalAlign=middle;resizable=0;points=[];" vertex="1" connectable="0" parent="aoXMOWsdjX2d0jGUOMzd-14">
          <mxGeometry x="-0.1367" y="-2" relative="1" as="geometry">
            <mxPoint as="offset" />
          </mxGeometry>
        </mxCell>
        <mxCell id="aoXMOWsdjX2d0jGUOMzd-16" style="edgeStyle=orthogonalEdgeStyle;rounded=0;orthogonalLoop=1;jettySize=auto;html=1;entryX=0.5;entryY=0;entryDx=0;entryDy=0;" edge="1" parent="1" source="aoXMOWsdjX2d0jGUOMzd-17">
          <mxGeometry relative="1" as="geometry">
            <mxPoint x="481.5300000000001" y="921" as="targetPoint" />
            <Array as="points">
              <mxPoint x="482" y="930" />
              <mxPoint x="482" y="930" />
            </Array>
          </mxGeometry>
        </mxCell>
        <mxCell id="aoXMOWsdjX2d0jGUOMzd-17" value="SHDTOMAPFLAG &amp;amp; ISHEADNODE== true" style="rhombus;whiteSpace=wrap;html=1;rounded=1;fillColor=#F19C99;" vertex="1" parent="1">
          <mxGeometry x="399.3" y="811" width="164.45" height="83" as="geometry" />
        </mxCell>
        <mxCell id="aoXMOWsdjX2d0jGUOMzd-18" value="Writes&amp;nbsp;MESH_basin.map file with shd varible data" style="whiteSpace=wrap;html=1;rounded=1;fillColor=#FFFFFF;" vertex="1" parent="1">
          <mxGeometry x="169.29999999999998" y="822.5" width="150" height="60" as="geometry" />
        </mxCell>
        <mxCell id="aoXMOWsdjX2d0jGUOMzd-20" style="edgeStyle=orthogonalEdgeStyle;rounded=0;orthogonalLoop=1;jettySize=auto;html=1;entryX=0.5;entryY=0;entryDx=0;entryDy=0;" edge="1" parent="1" source="aoXMOWsdjX2d0jGUOMzd-21" target="aoXMOWsdjX2d0jGUOMzd-25">
          <mxGeometry relative="1" as="geometry" />
        </mxCell>
        <mxCell id="aoXMOWsdjX2d0jGUOMzd-21" value="call&amp;nbsp;READ_RUN_OPTIONS" style="whiteSpace=wrap;html=1;rounded=1;fillColor=#CCFFCC;" vertex="1" parent="1">
          <mxGeometry x="390" y="190" width="163.75" height="60" as="geometry" />
        </mxCell>
        <mxCell id="aoXMOWsdjX2d0jGUOMzd-22" value="" style="edgeStyle=orthogonalEdgeStyle;rounded=0;orthogonalLoop=1;jettySize=auto;html=1;" edge="1" parent="1" source="aoXMOWsdjX2d0jGUOMzd-23">
          <mxGeometry relative="1" as="geometry">
            <mxPoint x="475" y="190" as="targetPoint" />
          </mxGeometry>
        </mxCell>
        <mxCell id="aoXMOWsdjX2d0jGUOMzd-23" value="Initializing variables and parameters e.g.&lt;div&gt;(fls,shd, cm, db etc)&lt;/div&gt;" style="whiteSpace=wrap;html=1;rounded=1;fillColor=#FFFFFF;" vertex="1" parent="1">
          <mxGeometry x="386.25" y="100" width="177.5" height="60" as="geometry" />
        </mxCell>
        <mxCell id="aoXMOWsdjX2d0jGUOMzd-24" value="" style="edgeStyle=orthogonalEdgeStyle;rounded=0;orthogonalLoop=1;jettySize=auto;html=1;" edge="1" parent="1" source="aoXMOWsdjX2d0jGUOMzd-25" target="aoXMOWsdjX2d0jGUOMzd-27">
          <mxGeometry relative="1" as="geometry" />
        </mxCell>
        <mxCell id="aoXMOWsdjX2d0jGUOMzd-25" value="Check Output Folder derived from `fls%GENDIR_OUT`" style="whiteSpace=wrap;html=1;rounded=1;fillColor=#FFFFFF;" vertex="1" parent="1">
          <mxGeometry x="391.57" y="270" width="165.62" height="60" as="geometry" />
        </mxCell>
        <mxCell id="aoXMOWsdjX2d0jGUOMzd-26" value="" style="edgeStyle=orthogonalEdgeStyle;rounded=0;orthogonalLoop=1;jettySize=auto;html=1;" edge="1" parent="1" source="aoXMOWsdjX2d0jGUOMzd-27" target="aoXMOWsdjX2d0jGUOMzd-28">
          <mxGeometry relative="1" as="geometry" />
        </mxCell>
        <mxCell id="aoXMOWsdjX2d0jGUOMzd-27" value="&lt;span dir=&quot;ltr&quot; class=&quot;ui-provider a b c d e f g h i j k l m n o p q r s t u v w x y z ab ac ae af ag ah ai aj ak&quot;&gt;&amp;nbsp;call open_echo_txt:&lt;/span&gt;&lt;div&gt;&lt;span dir=&quot;ltr&quot; class=&quot;ui-provider a b c d e f g h i j k l m n o p q r s t u v w x y z ab ac ae af ag ah ai aj ak&quot;&gt;Opens status file `&lt;/span&gt;&lt;span style=&quot;background-color: initial;&quot;&gt;MESH_output_echo_print.txt`&amp;nbsp;&lt;/span&gt;&lt;/div&gt;" style="whiteSpace=wrap;html=1;rounded=1;fillColor=#FFFFFF;" vertex="1" parent="1">
          <mxGeometry x="379.69" y="359" width="189.38" height="70" as="geometry" />
        </mxCell>
        <mxCell id="aoXMOWsdjX2d0jGUOMzd-28" value="&lt;font style=&quot;font-size: 12px;&quot;&gt;Assigns&amp;nbsp;SHDFILEFMT,&amp;nbsp;SHDTOMAPFLAG flags based on SHDFILEFLAG.&lt;br&gt;Default = 1 and false respectively&lt;/font&gt;" style="whiteSpace=wrap;html=1;rounded=1;fillColor=#FFFFFF;" vertex="1" parent="1">
          <mxGeometry x="356.53000000000003" y="460" width="233.44" height="72" as="geometry" />
        </mxCell>
        <mxCell id="aoXMOWsdjX2d0jGUOMzd-84" value="" style="edgeStyle=orthogonalEdgeStyle;rounded=0;orthogonalLoop=1;jettySize=auto;html=1;exitX=0.042;exitY=0.51;exitDx=0;exitDy=0;exitPerimeter=0;" edge="1" parent="1" source="aoXMOWsdjX2d0jGUOMzd-141" target="aoXMOWsdjX2d0jGUOMzd-85">
          <mxGeometry relative="1" as="geometry">
            <mxPoint x="601.0076190476193" y="1573.75" as="sourcePoint" />
          </mxGeometry>
        </mxCell>
        <mxCell id="aoXMOWsdjX2d0jGUOMzd-85" value="- Prints and writes land and water tile configuration such as&amp;nbsp;&#39;Tile ID&#39;, &#39;Grid&#39;, &#39;GRU&#39; into&amp;nbsp;`MESH_output_echo_print.txt`&lt;div&gt;&lt;br&gt;&lt;div&gt;-&amp;nbsp;&amp;nbsp;call &lt;u&gt;mpi_split_nml&lt;/u&gt;: calculate active tiles in the current node and update grid indices&lt;/div&gt;&lt;/div&gt;" style="whiteSpace=wrap;html=1;rounded=1;fillColor=#FFE599;" vertex="1" parent="1">
          <mxGeometry x="121.79999999999995" y="1133.5" width="245" height="113" as="geometry" />
        </mxCell>
        <mxCell id="aoXMOWsdjX2d0jGUOMzd-87" value="call READ_SOIL_LEVELS(fls, shd):&amp;nbsp; reads soil levels file, allocates variables in shd" style="whiteSpace=wrap;html=1;rounded=1;fillColor=#CCFFCC;" vertex="1" parent="1">
          <mxGeometry x="130" y="1270" width="205" height="82" as="geometry" />
        </mxCell>
        <mxCell id="aoXMOWsdjX2d0jGUOMzd-88" style="rounded=0;orthogonalLoop=1;jettySize=auto;html=1;entryX=1;entryY=0.5;entryDx=0;entryDy=0;" edge="1" parent="1" source="aoXMOWsdjX2d0jGUOMzd-92" target="aoXMOWsdjX2d0jGUOMzd-87">
          <mxGeometry relative="1" as="geometry" />
        </mxCell>
        <mxCell id="aoXMOWsdjX2d0jGUOMzd-89" value="Yes" style="edgeLabel;html=1;align=center;verticalAlign=middle;resizable=0;points=[];" vertex="1" connectable="0" parent="aoXMOWsdjX2d0jGUOMzd-88">
          <mxGeometry x="0.0632" y="-1" relative="1" as="geometry">
            <mxPoint as="offset" />
          </mxGeometry>
        </mxCell>
        <mxCell id="aoXMOWsdjX2d0jGUOMzd-90" style="rounded=0;orthogonalLoop=1;jettySize=auto;html=1;exitX=0;exitY=0.5;exitDx=0;exitDy=0;" edge="1" parent="1" source="aoXMOWsdjX2d0jGUOMzd-92" target="aoXMOWsdjX2d0jGUOMzd-93">
          <mxGeometry relative="1" as="geometry" />
        </mxCell>
        <mxCell id="aoXMOWsdjX2d0jGUOMzd-91" value="No" style="edgeLabel;html=1;align=center;verticalAlign=middle;resizable=0;points=[];" vertex="1" connectable="0" parent="aoXMOWsdjX2d0jGUOMzd-90">
          <mxGeometry x="-0.0025" y="-2" relative="1" as="geometry">
            <mxPoint as="offset" />
          </mxGeometry>
        </mxCell>
        <mxCell id="aoXMOWsdjX2d0jGUOMzd-92" value="ro%RUNLSS == true" style="rhombus;whiteSpace=wrap;html=1;rounded=1;fillColor=#F19C99;" vertex="1" parent="1">
          <mxGeometry x="411.46000000000004" y="1302" width="160" height="100" as="geometry" />
        </mxCell>
        <mxCell id="aoXMOWsdjX2d0jGUOMzd-93" value="Sets&amp;nbsp;shd%lc%IGND = 1,&amp;nbsp;&amp;nbsp;&lt;div&gt;&lt;span style=&quot;background-color: initial;&quot;&gt;shd%lc%sl%DELZ = 0.&lt;/span&gt;&lt;/div&gt;&lt;div&gt;&lt;span style=&quot;background-color: initial;&quot;&gt;&amp;nbsp;shd%lc%sl%ZBOT = 0.0&lt;br&gt;&lt;/span&gt;&lt;span style=&quot;background-color: initial;&quot;&gt;:This assumes a single layer of soil&lt;/span&gt;&lt;/div&gt;" style="whiteSpace=wrap;html=1;rounded=1;fillColor=#FFFFFF;" vertex="1" parent="1">
          <mxGeometry x="117.5" y="1368" width="227.01" height="82" as="geometry" />
        </mxCell>
        <mxCell id="aoXMOWsdjX2d0jGUOMzd-94" style="edgeStyle=orthogonalEdgeStyle;rounded=0;orthogonalLoop=1;jettySize=auto;html=1;entryX=0.5;entryY=0;entryDx=0;entryDy=0;exitX=0.519;exitY=0.936;exitDx=0;exitDy=0;exitPerimeter=0;" edge="1" parent="1" source="aoXMOWsdjX2d0jGUOMzd-92" target="aoXMOWsdjX2d0jGUOMzd-96">
          <mxGeometry relative="1" as="geometry">
            <mxPoint x="500.52380952380963" y="1420" as="sourcePoint" />
          </mxGeometry>
        </mxCell>
        <mxCell id="aoXMOWsdjX2d0jGUOMzd-95" value="" style="edgeStyle=orthogonalEdgeStyle;rounded=0;orthogonalLoop=1;jettySize=auto;html=1;" edge="1" parent="1" source="aoXMOWsdjX2d0jGUOMzd-96" target="aoXMOWsdjX2d0jGUOMzd-99">
          <mxGeometry relative="1" as="geometry">
            <mxPoint x="497.3000000000002" y="1540" as="targetPoint" />
          </mxGeometry>
        </mxCell>
        <mxCell id="aoXMOWsdjX2d0jGUOMzd-96" value="call model_variables_init(shd):&lt;div&gt;&lt;br&gt;&lt;/div&gt;" style="whiteSpace=wrap;html=1;rounded=1;fillColor=#CCFFCC;" vertex="1" parent="1">
          <mxGeometry x="411.46" y="1460" width="169.5" height="50" as="geometry" />
        </mxCell>
        <mxCell id="aoXMOWsdjX2d0jGUOMzd-98" style="edgeStyle=orthogonalEdgeStyle;rounded=0;orthogonalLoop=1;jettySize=auto;html=1;entryX=0.5;entryY=0;entryDx=0;entryDy=0;" edge="1" parent="1" source="aoXMOWsdjX2d0jGUOMzd-99" target="aoXMOWsdjX2d0jGUOMzd-101">
          <mxGeometry relative="1" as="geometry" />
        </mxCell>
        <mxCell id="aoXMOWsdjX2d0jGUOMzd-99" value="call CLASSD:&lt;div&gt;initialize constants&lt;/div&gt;" style="whiteSpace=wrap;html=1;rounded=1;fillColor=#FFE599;" vertex="1" parent="1">
          <mxGeometry x="418.09" y="1540" width="156.25" height="70" as="geometry" />
        </mxCell>
        <mxCell id="aoXMOWsdjX2d0jGUOMzd-146" style="edgeStyle=orthogonalEdgeStyle;rounded=0;orthogonalLoop=1;jettySize=auto;html=1;" edge="1" parent="1" source="aoXMOWsdjX2d0jGUOMzd-101" target="aoXMOWsdjX2d0jGUOMzd-145">
          <mxGeometry relative="1" as="geometry" />
        </mxCell>
        <mxCell id="aoXMOWsdjX2d0jGUOMzd-101" value="call read_parameters(fls,shd):&lt;div&gt;reads and allocates model parameters&lt;br&gt;&lt;/div&gt;" style="whiteSpace=wrap;html=1;rounded=1;fillColor=#CCFFCC;" vertex="1" parent="1">
          <mxGeometry x="418.0899999999999" y="1640" width="156.25" height="70" as="geometry" />
        </mxCell>
        <mxCell id="aoXMOWsdjX2d0jGUOMzd-105" value="" style="edgeStyle=orthogonalEdgeStyle;rounded=0;orthogonalLoop=1;jettySize=auto;html=1;" edge="1" parent="1" source="aoXMOWsdjX2d0jGUOMzd-107" target="aoXMOWsdjX2d0jGUOMzd-109">
          <mxGeometry relative="1" as="geometry" />
        </mxCell>
        <mxCell id="aoXMOWsdjX2d0jGUOMzd-106" value="Yes" style="edgeLabel;html=1;align=center;verticalAlign=middle;resizable=0;points=[];" vertex="1" connectable="0" parent="aoXMOWsdjX2d0jGUOMzd-105">
          <mxGeometry x="0.0011" relative="1" as="geometry">
            <mxPoint as="offset" />
          </mxGeometry>
        </mxCell>
        <mxCell id="aoXMOWsdjX2d0jGUOMzd-107" value="ro%RUNGRID == true" style="rhombus;whiteSpace=wrap;html=1;rounded=1;fillColor=#F19C99;" vertex="1" parent="1">
          <mxGeometry x="440.00000000000006" y="1940" width="160" height="100" as="geometry" />
        </mxCell>
        <mxCell id="aoXMOWsdjX2d0jGUOMzd-108" style="rounded=0;orthogonalLoop=1;jettySize=auto;html=1;exitX=0.5;exitY=1;exitDx=0;exitDy=0;entryX=0.5;entryY=0;entryDx=0;entryDy=0;" edge="1" parent="1" source="aoXMOWsdjX2d0jGUOMzd-109" target="aoXMOWsdjX2d0jGUOMzd-112">
          <mxGeometry relative="1" as="geometry" />
        </mxCell>
        <mxCell id="aoXMOWsdjX2d0jGUOMzd-109" value="call read_basin_structures(shd)" style="whiteSpace=wrap;html=1;fillColor=#CCFFCC;rounded=1;" vertex="1" parent="1">
          <mxGeometry x="212.97999999999996" y="1960" width="180" height="60" as="geometry" />
        </mxCell>
        <mxCell id="aoXMOWsdjX2d0jGUOMzd-110" value="" style="edgeStyle=orthogonalEdgeStyle;rounded=0;orthogonalLoop=1;jettySize=auto;html=1;" edge="1" parent="1" source="aoXMOWsdjX2d0jGUOMzd-112" target="aoXMOWsdjX2d0jGUOMzd-114">
          <mxGeometry relative="1" as="geometry" />
        </mxCell>
        <mxCell id="aoXMOWsdjX2d0jGUOMzd-111" value="Yes" style="edgeLabel;html=1;align=center;verticalAlign=middle;resizable=0;points=[];" vertex="1" connectable="0" parent="aoXMOWsdjX2d0jGUOMzd-110">
          <mxGeometry x="0.0726" y="2" relative="1" as="geometry">
            <mxPoint as="offset" />
          </mxGeometry>
        </mxCell>
        <mxCell id="aoXMOWsdjX2d0jGUOMzd-112" value="SUBBASINFLAG &amp;gt; 0" style="rhombus;whiteSpace=wrap;html=1;rounded=1;fillColor=#F19C99;" vertex="1" parent="1">
          <mxGeometry x="240.66" y="2070" width="139.03" height="70" as="geometry" />
        </mxCell>
        <mxCell id="aoXMOWsdjX2d0jGUOMzd-113" style="edgeStyle=orthogonalEdgeStyle;rounded=0;orthogonalLoop=1;jettySize=auto;html=1;entryX=0.5;entryY=0;entryDx=0;entryDy=0;" edge="1" parent="1" source="aoXMOWsdjX2d0jGUOMzd-114" target="aoXMOWsdjX2d0jGUOMzd-117">
          <mxGeometry relative="1" as="geometry" />
        </mxCell>
        <mxCell id="aoXMOWsdjX2d0jGUOMzd-114" value="-&amp;nbsp;&amp;nbsp;Allocate local variables&lt;div&gt;-&amp;nbsp;&amp;nbsp;Set gauge locations to 1&lt;/div&gt;&lt;div&gt;-&amp;nbsp;&amp;nbsp;Mask grids upstream of gauge locations&lt;/div&gt;&lt;div&gt;-&amp;nbsp;&amp;nbsp;Print diagnostic information&lt;/div&gt;" style="whiteSpace=wrap;html=1;fillColor=#FFFFFF;rounded=1;" vertex="1" parent="1">
          <mxGeometry x="30.000000000000007" y="2050" width="170" height="110" as="geometry" />
        </mxCell>
        <mxCell id="aoXMOWsdjX2d0jGUOMzd-115" style="edgeStyle=orthogonalEdgeStyle;rounded=0;orthogonalLoop=1;jettySize=auto;html=1;entryX=0.5;entryY=0;entryDx=0;entryDy=0;" edge="1" parent="1" source="aoXMOWsdjX2d0jGUOMzd-116" target="aoXMOWsdjX2d0jGUOMzd-23">
          <mxGeometry relative="1" as="geometry" />
        </mxCell>
        <mxCell id="aoXMOWsdjX2d0jGUOMzd-116" value="read_initial_inputs.f90" style="rounded=0;whiteSpace=wrap;html=1;fillColor=#F8CECC;" vertex="1" parent="1">
          <mxGeometry x="392.98" y="18" width="162.81" height="50" as="geometry" />
        </mxCell>
        <mxCell id="aoXMOWsdjX2d0jGUOMzd-117" value="End of subroutine" style="whiteSpace=wrap;html=1;fillColor=#FFFFFF;rounded=1;" vertex="1" parent="1">
          <mxGeometry x="56.5" y="2190" width="117" height="40" as="geometry" />
        </mxCell>
        <mxCell id="aoXMOWsdjX2d0jGUOMzd-121" value="&amp;nbsp;= 1" style="rounded=0;orthogonalLoop=1;jettySize=auto;html=1;entryX=0;entryY=0.52;entryDx=0;entryDy=0;entryPerimeter=0;" edge="1" parent="1" source="aoXMOWsdjX2d0jGUOMzd-122" target="aoXMOWsdjX2d0jGUOMzd-123">
          <mxGeometry x="0.0039" relative="1" as="geometry">
            <mxPoint as="offset" />
          </mxGeometry>
        </mxCell>
        <mxCell id="aoXMOWsdjX2d0jGUOMzd-122" value="Drainage Database (DDB)format" style="rhombus;whiteSpace=wrap;html=1;rounded=1;fillColor=#F19C99;" vertex="1" parent="1">
          <mxGeometry x="385.17" y="585" width="170" height="80" as="geometry" />
        </mxCell>
        <mxCell id="aoXMOWsdjX2d0jGUOMzd-123" value="r2c ASCII format&lt;div style=&quot;&quot;&gt;&lt;span style=&quot;font-size: 11px;&quot;&gt;reads&amp;nbsp;&lt;/span&gt;&lt;font style=&quot;font-size: 8px;&quot;&gt;MESH_drainage_database.r2c&lt;/font&gt;&lt;span style=&quot;font-size: 11px;&quot;&gt;&amp;nbsp;into db&lt;/span&gt;&lt;/div&gt;" style="whiteSpace=wrap;html=1;rounded=1;fillColor=#FFFFFF;" vertex="1" parent="1">
          <mxGeometry x="645.1700000000001" y="550" width="190" height="50" as="geometry" />
        </mxCell>
        <mxCell id="aoXMOWsdjX2d0jGUOMzd-124" value="Point mode&lt;div&gt;reads CLASS.ini and allocates&amp;nbsp;db variables&lt;/div&gt;" style="whiteSpace=wrap;html=1;rounded=1;fillColor=#FFFFFF;" vertex="1" parent="1">
          <mxGeometry x="645.1700000000001" y="600" width="190" height="50" as="geometry" />
        </mxCell>
        <mxCell id="aoXMOWsdjX2d0jGUOMzd-125" value="NetCDF format&amp;nbsp;shed file&lt;div&gt;&lt;font style=&quot;font-size: 9px;&quot;&gt;reads MESH_drainage_database.nc into db&lt;/font&gt;&lt;br&gt;&lt;/div&gt;" style="whiteSpace=wrap;html=1;rounded=1;fillColor=#FFFFFF;" vertex="1" parent="1">
          <mxGeometry x="645.1700000000001" y="650" width="190" height="50" as="geometry" />
        </mxCell>
        <mxCell id="aoXMOWsdjX2d0jGUOMzd-126" value="= 2" style="rounded=0;orthogonalLoop=1;jettySize=auto;html=1;entryX=0;entryY=0.25;entryDx=0;entryDy=0;exitX=0.931;exitY=0.54;exitDx=0;exitDy=0;exitPerimeter=0;" edge="1" parent="1" source="aoXMOWsdjX2d0jGUOMzd-122" target="aoXMOWsdjX2d0jGUOMzd-124">
          <mxGeometry x="0.0791" y="-1" relative="1" as="geometry">
            <mxPoint x="555.1700000000001" y="610" as="sourcePoint" />
            <mxPoint x="685.1700000000001" y="626.5" as="targetPoint" />
            <mxPoint as="offset" />
          </mxGeometry>
        </mxCell>
        <mxCell id="aoXMOWsdjX2d0jGUOMzd-127" value="= 3, 5" style="rounded=0;orthogonalLoop=1;jettySize=auto;html=1;entryX=0;entryY=0.25;entryDx=0;entryDy=0;exitX=0.936;exitY=0.55;exitDx=0;exitDy=0;exitPerimeter=0;" edge="1" parent="1" source="aoXMOWsdjX2d0jGUOMzd-122" target="aoXMOWsdjX2d0jGUOMzd-125">
          <mxGeometry x="0.1543" y="-4" relative="1" as="geometry">
            <mxPoint x="545.1700000000001" y="612" as="sourcePoint" />
            <mxPoint x="685.1700000000001" y="670" as="targetPoint" />
            <mxPoint as="offset" />
          </mxGeometry>
        </mxCell>
        <mxCell id="aoXMOWsdjX2d0jGUOMzd-129" value="text format&lt;div&gt;&lt;font style=&quot;font-size: 9px;&quot;&gt;reads MESH_drainage_database.asc into db&lt;/font&gt;&lt;br&gt;&lt;/div&gt;" style="whiteSpace=wrap;html=1;rounded=1;fillColor=#FFFFFF;" vertex="1" parent="1">
          <mxGeometry x="645.1700000000001" y="700" width="190" height="50" as="geometry" />
        </mxCell>
        <mxCell id="aoXMOWsdjX2d0jGUOMzd-130" value="= 4" style="rounded=0;orthogonalLoop=1;jettySize=auto;html=1;exitX=0.865;exitY=0.63;exitDx=0;exitDy=0;exitPerimeter=0;entryX=0;entryY=0.5;entryDx=0;entryDy=0;" edge="1" parent="1" source="aoXMOWsdjX2d0jGUOMzd-122" target="aoXMOWsdjX2d0jGUOMzd-129">
          <mxGeometry x="0.313" y="-6" relative="1" as="geometry">
            <mxPoint x="555.1700000000001" y="620" as="sourcePoint" />
            <mxPoint x="675.1700000000001" y="730" as="targetPoint" />
            <mxPoint as="offset" />
          </mxGeometry>
        </mxCell>
        <mxCell id="aoXMOWsdjX2d0jGUOMzd-131" value="&lt;span style=&quot;color: rgb(0, 0, 0); font-family: Helvetica; font-size: 11px; font-style: normal; font-variant-ligatures: normal; font-variant-caps: normal; font-weight: 400; letter-spacing: normal; orphans: 2; text-align: center; text-indent: 0px; text-transform: none; widows: 2; word-spacing: 0px; -webkit-text-stroke-width: 0px; white-space: nowrap; background-color: rgb(255, 255, 255); text-decoration-thickness: initial; text-decoration-style: initial; text-decoration-color: initial; display: inline !important; float: none;&quot;&gt;SHDFILEFMT&lt;/span&gt;" style="text;whiteSpace=wrap;html=1;" vertex="1" parent="1">
          <mxGeometry x="542.6700000000001" y="563" width="80" height="20" as="geometry" />
        </mxCell>
        <mxCell id="aoXMOWsdjX2d0jGUOMzd-132" style="edgeStyle=orthogonalEdgeStyle;rounded=0;orthogonalLoop=1;jettySize=auto;html=1;entryX=0.5;entryY=0;entryDx=0;entryDy=0;" edge="1" parent="1" target="aoXMOWsdjX2d0jGUOMzd-122">
          <mxGeometry relative="1" as="geometry">
            <mxPoint x="470" y="530" as="sourcePoint" />
          </mxGeometry>
        </mxCell>
        <mxCell id="aoXMOWsdjX2d0jGUOMzd-133" value="Read Drainage DB and&amp;nbsp;&lt;div&gt;allocate variables&lt;/div&gt;" style="text;html=1;align=center;verticalAlign=middle;resizable=0;points=[];autosize=1;strokeColor=none;fillColor=none;" vertex="1" parent="1">
          <mxGeometry x="685.1700000000001" y="510" width="150" height="40" as="geometry" />
        </mxCell>
        <mxCell id="aoXMOWsdjX2d0jGUOMzd-140" value="" style="edgeStyle=orthogonalEdgeStyle;rounded=0;orthogonalLoop=1;jettySize=auto;html=1;" edge="1" parent="1" source="aoXMOWsdjX2d0jGUOMzd-134" target="aoXMOWsdjX2d0jGUOMzd-139">
          <mxGeometry relative="1" as="geometry" />
        </mxCell>
        <mxCell id="aoXMOWsdjX2d0jGUOMzd-134" value="call open_input_file(db)&lt;div&gt;call read_file_fields_to_buffer(db)&lt;br&gt;&lt;/div&gt;&lt;div&gt;call basin_info_from_field_list(db%fields,shd)&lt;br&gt;&lt;/div&gt;" style="rounded=1;whiteSpace=wrap;html=1;fillColor=#FFE599;" vertex="1" parent="1">
          <mxGeometry x="324.4799999999999" y="930" width="325.47" height="81" as="geometry" />
        </mxCell>
        <mxCell id="aoXMOWsdjX2d0jGUOMzd-137" value="NetCDF format&amp;nbsp;(vector/subbasin)&lt;div&gt;&lt;font style=&quot;font-size: 9px;&quot;&gt;reads MESH_drainage_database.nc into db&lt;/font&gt;&lt;br&gt;&lt;/div&gt;" style="whiteSpace=wrap;html=1;rounded=1;fillColor=#FFFFFF;" vertex="1" parent="1">
          <mxGeometry x="645.1700000000001" y="750" width="190" height="50" as="geometry" />
        </mxCell>
        <mxCell id="aoXMOWsdjX2d0jGUOMzd-142" style="edgeStyle=orthogonalEdgeStyle;rounded=0;orthogonalLoop=1;jettySize=auto;html=1;" edge="1" parent="1" source="aoXMOWsdjX2d0jGUOMzd-139" target="aoXMOWsdjX2d0jGUOMzd-141">
          <mxGeometry relative="1" as="geometry" />
        </mxCell>
        <mxCell id="aoXMOWsdjX2d0jGUOMzd-139" value="Setting up and initializing shd variables" style="whiteSpace=wrap;html=1;fillColor=#FFFFFF;rounded=1;" vertex="1" parent="1">
          <mxGeometry x="388" y="1050" width="198.43" height="60" as="geometry" />
        </mxCell>
        <mxCell id="aoXMOWsdjX2d0jGUOMzd-143" style="edgeStyle=orthogonalEdgeStyle;rounded=0;orthogonalLoop=1;jettySize=auto;html=1;" edge="1" parent="1" source="aoXMOWsdjX2d0jGUOMzd-141" target="aoXMOWsdjX2d0jGUOMzd-92">
          <mxGeometry relative="1" as="geometry" />
        </mxCell>
        <mxCell id="aoXMOWsdjX2d0jGUOMzd-141" value="ro%RUNLSS == true" style="rhombus;whiteSpace=wrap;html=1;rounded=1;fillColor=#F19C99;" vertex="1" parent="1">
          <mxGeometry x="407.22" y="1140" width="160" height="100" as="geometry" />
        </mxCell>
        <mxCell id="aoXMOWsdjX2d0jGUOMzd-144" value="call resumerun_config(fls, shd, cm)" style="whiteSpace=wrap;html=1;fillColor=#CCFFCC;rounded=1;" vertex="1" parent="1">
          <mxGeometry x="389.34" y="1850" width="199.73" height="60" as="geometry" />
        </mxCell>
        <mxCell id="aoXMOWsdjX2d0jGUOMzd-145" value="&lt;div&gt;call read_fews_runinfo_nc:&lt;br&gt;&lt;/div&gt;reads runinfo.nc if exists, and&amp;nbsp;override user-provided configuration" style="whiteSpace=wrap;html=1;rounded=1;fillColor=#CCFFCC;" vertex="1" parent="1">
          <mxGeometry x="396.51" y="1740" width="199.41" height="80" as="geometry" />
        </mxCell>
        <mxCell id="aoXMOWsdjX2d0jGUOMzd-147" style="edgeStyle=orthogonalEdgeStyle;rounded=0;orthogonalLoop=1;jettySize=auto;html=1;entryX=0.541;entryY=-0.033;entryDx=0;entryDy=0;entryPerimeter=0;" edge="1" parent="1" source="aoXMOWsdjX2d0jGUOMzd-145" target="aoXMOWsdjX2d0jGUOMzd-144">
          <mxGeometry relative="1" as="geometry" />
        </mxCell>
        <mxCell id="aoXMOWsdjX2d0jGUOMzd-148" style="rounded=0;orthogonalLoop=1;jettySize=auto;html=1;entryX=0.46;entryY=0.09;entryDx=0;entryDy=0;entryPerimeter=0;" edge="1" parent="1" source="aoXMOWsdjX2d0jGUOMzd-144" target="aoXMOWsdjX2d0jGUOMzd-107">
          <mxGeometry relative="1" as="geometry" />
        </mxCell>
        <mxCell id="aoXMOWsdjX2d0jGUOMzd-149" value="" style="group" vertex="1" connectable="0" parent="1">
          <mxGeometry x="5.63" width="359.23" height="452" as="geometry" />
        </mxCell>
        <mxCell id="aoXMOWsdjX2d0jGUOMzd-118" value="" style="group" vertex="1" connectable="0" parent="aoXMOWsdjX2d0jGUOMzd-149">
          <mxGeometry x="5.62" y="18" width="353.61" height="434" as="geometry" />
        </mxCell>
        <mxCell id="aoXMOWsdjX2d0jGUOMzd-119" value="&lt;pre style=&quot;text-align: left;&quot;&gt;&lt;br&gt;&lt;/pre&gt;" style="rounded=0;whiteSpace=wrap;html=1;fillColor=#FFCC99;" vertex="1" parent="aoXMOWsdjX2d0jGUOMzd-118">
          <mxGeometry width="338.75" height="260" as="geometry" />
        </mxCell>
        <mxCell id="aoXMOWsdjX2d0jGUOMzd-120" value="&lt;div style=&quot;text-align: left;&quot;&gt;&lt;font style=&quot;font-size: 9px;&quot;&gt;&lt;font style=&quot;background-color: initial;&quot;&gt;&lt;span style=&quot;background-color: initial;&quot;&gt;&lt;b&gt;Dependencies&lt;/b&gt;&lt;/span&gt;&lt;/font&gt;&lt;/font&gt;&lt;/div&gt;&lt;div style=&quot;text-align: left;&quot;&gt;&lt;font style=&quot;font-size: 9px;&quot;&gt;&lt;font style=&quot;background-color: initial;&quot;&gt;&lt;span style=&quot;background-color: initial;&quot;&gt;MESH_Driver/&lt;/span&gt;&lt;span style=&quot;background-color: initial;&quot;&gt;read_run_options.f90:&amp;nbsp;&lt;/span&gt;&lt;/font&gt;&lt;span style=&quot;background-color: initial;&quot;&gt;&lt;font style=&quot;&quot;&gt;READ_RUN_OPTIONS&lt;/font&gt;&lt;/span&gt;&lt;/font&gt;&lt;/div&gt;&lt;div style=&quot;text-align: left;&quot;&gt;&lt;font style=&quot;font-size: 9px;&quot;&gt;&lt;span style=&quot;text-align: center;&quot;&gt;&lt;font style=&quot;&quot;&gt;Driver\MESH_Driver\print_routines.f90:&lt;/font&gt;&lt;font style=&quot;&quot;&gt;&amp;nbsp;&lt;/font&gt;&lt;/span&gt;&lt;font style=&quot;font-weight: 700; text-align: center;&quot;&gt;&lt;span style=&quot;font-weight: 400;&quot;&gt;open_echo_txt&lt;/span&gt;&lt;/font&gt;&lt;/font&gt;&lt;span style=&quot;background-color: initial; font-size: 8.04px;&quot;&gt;&lt;font style=&quot;font-size: 9px;&quot;&gt;&lt;br&gt;&lt;/font&gt;&lt;/span&gt;&lt;/div&gt;&lt;div style=&quot;text-align: left;&quot;&gt;&lt;font style=&quot;&quot;&gt;&lt;font style=&quot;text-align: center;&quot;&gt;&lt;font size=&quot;1&quot;&gt;Modules\io_modules\mesh_io.F90:open_input_file&lt;/font&gt;&lt;br&gt;&lt;/font&gt;&lt;/font&gt;&lt;/div&gt;&lt;div style=&quot;text-align: left;&quot;&gt;&lt;font style=&quot;font-size: 9px;&quot;&gt;Modules\io_modules\mesh_io.F90: read_file_fields_to_buffer&lt;/font&gt;&lt;/div&gt;&lt;div style=&quot;text-align: left;&quot;&gt;&lt;span style=&quot;background-color: initial;&quot;&gt;&lt;font style=&quot;font-size: 9px;&quot;&gt;Modules\io_modules\basin_utilities.f90: basin_info_from_field_list&lt;/font&gt;&lt;/span&gt;&lt;/div&gt;&lt;div style=&quot;text-align: left;&quot;&gt;&lt;span style=&quot;font-size: 9px; background-color: initial; text-align: center;&quot;&gt;Modules\mpi_module\mpi_utilities.f90: mpi_split_nml&lt;/span&gt;&lt;br&gt;&lt;/div&gt;&lt;div style=&quot;text-align: left;&quot;&gt;&lt;span style=&quot;background-color: initial; text-align: center;&quot;&gt;&lt;font style=&quot;font-size: 9px;&quot;&gt;MESH_Driver\read_soil_levels.f90: READ_SOIL_LEVELS&lt;/font&gt;&lt;br&gt;&lt;/span&gt;&lt;/div&gt;&lt;div style=&quot;text-align: left;&quot;&gt;&lt;span style=&quot;background-color: initial; text-align: center;&quot;&gt;&lt;font style=&quot;font-size: 9px;&quot;&gt;MESH_Driver\model_variables.f90: model_variables_init&lt;/font&gt;&lt;br&gt;&lt;/span&gt;&lt;/div&gt;&lt;div style=&quot;text-align: left;&quot;&gt;&lt;div&gt;&lt;span style=&quot;background-color: initial; text-align: center;&quot;&gt;&lt;font style=&quot;font-size: 9px;&quot;&gt;LSS_Model\CLASS\3.6\sa_mesh_process\RUNCLASS36_constants.f90: CLASSD&lt;/font&gt;&lt;br&gt;&lt;/span&gt;&lt;/div&gt;&lt;div&gt;&lt;div&gt;&lt;span style=&quot;font-size: x-small; background-color: initial; text-align: center;&quot;&gt;MESH_Driver\read_parameters.f90: read_parameters&lt;/span&gt;&lt;/div&gt;&lt;/div&gt;&lt;div&gt;&lt;span style=&quot;font-size: x-small; background-color: initial; text-align: center;&quot;&gt;MESH_Driver\read_fews_runinfo_nc.f90: read_fews_runinfo_nc&lt;/span&gt;&lt;br&gt;&lt;/div&gt;&lt;/div&gt;&lt;div style=&quot;text-align: left;&quot;&gt;&lt;span style=&quot;background-color: initial; text-align: center;&quot;&gt;&lt;font style=&quot;&quot;&gt;&lt;font style=&quot;font-size: 9px;&quot;&gt;MESH_Driver\resumerun_config.f90: resumerun_config&lt;/font&gt;&lt;br&gt;&lt;/font&gt;&lt;/span&gt;&lt;/div&gt;&lt;div style=&quot;text-align: left;&quot;&gt;&lt;span style=&quot;font-size: x-small; background-color: initial; text-align: center;&quot;&gt;MESH_Driver\read_basin_structures.f90: read_basin_structures&lt;/span&gt;&lt;br&gt;&lt;/div&gt;" style="text;html=1;align=center;verticalAlign=middle;whiteSpace=wrap;rounded=0;" vertex="1" parent="aoXMOWsdjX2d0jGUOMzd-149">
          <mxGeometry width="354.37" height="252" as="geometry" />
        </mxCell>
      </root>
    </mxGraphModel>
  </diagram>
</mxfile>
